<svg aria-hidden="true" style="position:absolute;width:0;height:0;overflow:hidden" xmlns="http://www.w3.org/2000/svg">
  <defs>
    <symbol id="icon-trophy_mobile" viewBox="0 0 32 32">
      <path fill="#242A37"
        d="M31.062 2.31h-4.106c.015-.455.023-.912.023-1.372A.938.938 0 0 0 26.042 0H5.959a.938.938 0 0 0-.938.938c0 .46.008.917.023 1.372H.938A.938.938 0 0 0 0 3.248c0 4.201 1.098 8.164 3.091 11.16 1.97 2.962 4.595 4.66 7.43 4.826a9.637 9.637 0 0 0 2.03 1.705v4.167h-1.573a3.452 3.452 0 0 0-3.448 3.448v1.573h-.067a.938.938 0 1 0 0 1.875h17.071a.938.938 0 0 0 0-1.875h-.067v-1.573a3.452 3.452 0 0 0-3.448-3.448h-1.573v-4.167a9.607 9.607 0 0 0 2.03-1.705c2.835-.165 5.46-1.864 7.431-4.826 1.993-2.996 3.091-6.959 3.091-11.16a.938.938 0 0 0-.938-.938zM4.652 13.368c-1.644-2.471-2.61-5.703-2.758-9.184h3.254c.338 4.279 1.343 8.234 2.912 11.373.25.5.511.972.783 1.417-1.559-.589-3.002-1.82-4.191-3.607zm22.696 0c-1.189 1.787-2.632 3.018-4.191 3.607.271-.445.533-.917.783-1.417 1.57-3.14 2.574-7.095 2.912-11.373h3.254c-.147 3.481-1.113 6.712-2.758 9.184z" />
    </symbol>
    <symbol id="icon-logout-svg" viewBox="0 0 41 32">
      <path fill="#3e4e6c" style="fill:var(--color1, #3e4e6c)"
        d="M34.985 14.899H13.177c-1.04 0-1.882.827-1.882 1.847s.843 1.847 1.882 1.847h21.808l-2.434 2.388c-.735.721-.735 1.89 0 2.612s1.927.721 2.662 0l5.647-5.54a1.74 1.74 0 0 0 .124-.134c.01-.011.018-.024.027-.035a1.76 1.76 0 0 0 .083-.11c.008-.011.014-.023.021-.034.026-.04.051-.08.074-.121l.012-.025c.024-.045.047-.091.066-.138l.007-.018c.02-.05.039-.1.055-.152l.005-.02c.015-.051.029-.102.04-.155a.793.793 0 0 0 .007-.048c.008-.044.016-.087.02-.132a1.873 1.873 0 0 0 0-.368c-.004-.045-.012-.089-.02-.133l-.007-.046a1.978 1.978 0 0 0-.04-.156l-.005-.018a1.645 1.645 0 0 0-.056-.153l-.006-.017a1.619 1.619 0 0 0-.067-.139l-.012-.024c-.023-.042-.049-.082-.075-.122l-.02-.033a1.76 1.76 0 0 0-.083-.11c-.009-.012-.017-.024-.027-.035a1.74 1.74 0 0 0-.124-.134l-5.647-5.54c-.367-.361-.849-.541-1.331-.541s-.964.18-1.331.541a1.823 1.823 0 0 0 0 2.612l2.434 2.388z" />
      <path fill="#3e4e6c" style="fill:var(--color1, #3e4e6c)"
        d="M15.398 31.853c5.138 0 9.919-2.501 12.788-6.689.58-.846.35-1.994-.512-2.563s-2.032-.344-2.612.503c-2.169 3.166-5.781 5.056-9.663 5.056-6.414 0-11.633-5.12-11.633-11.413S8.985 5.334 15.399 5.334c3.871 0 7.477 1.882 9.648 5.033.582.845 1.752 1.067 2.613.496s1.088-1.719.506-2.564c-2.871-4.17-7.644-6.659-12.767-6.659C6.909 1.64.001 8.417.001 16.747s6.907 15.107 15.398 15.107z" />
    </symbol>
    <symbol id="icon-plus" viewBox="0 0 32 32">
      <path fill="#fff"
        d="M2.32 14.48h12.16V2.32a1.52 1.52 0 0 1 3.04 0v12.16h12.16a1.52 1.52 0 0 1 0 3.04H17.52v12.16a1.52 1.52 0 0 1-3.04 0V17.52H2.32a1.52 1.52 0 0 1 0-3.04z"
        style="fill:var(--color1, #fff)" />
    </symbol>
  </defs>
</svg>

